<?xml version="1.0" encoding="UTF-8" standalone="no"?>
<svg width="395px" height="32px" viewBox="0 0 395 32" version="1.1" xmlns="http://www.w3.org/2000/svg" xmlns:xlink="http://www.w3.org/1999/xlink">
    <defs/>
    <g id="comps-v2" stroke="none" stroke-width="1" fill="none" fill-rule="evenodd">
        <g id="Single-view-two-titles" transform="translate(-89.000000, -62.000000)">
            <g id="smk-logo-print" transform="translate(89.000000, 62.000000)">
                <path d="M11.5854286,31.6061071 C5.31875,31.6061071 0.363892857,28.1758214 0.363892857,20.8076071 L8.40978571,20.8076071 C8.40978571,24.3225 9.55321429,25.2967143 11.8400714,25.2967143 C12.9407857,25.2967143 14.3388571,24.6190357 14.3388571,22.92525 C14.3388571,20.2991429 13.4911429,19.8761071 8.19785714,18.2669286 C2.01578571,16.4039286 0.745035714,13.98975 0.745035714,8.993 C0.745035714,3.74242857 4.72567857,0.27025 11.0350714,0.27025 C17.3871786,0.27025 21.2832143,3.57321429 21.2832143,10.5594643 L13.6603571,10.5594643 C13.6603571,7.89228571 13.1946071,6.41042857 10.9085714,6.41042857 C9.08746429,6.41042857 8.4525,7.17189286 8.4525,8.86567857 C8.4525,10.8141071 9.00285714,11.4498929 13.4911429,12.719 C20.0970714,14.5828214 22.3420357,17.2508214 22.3420357,22.2048571 C22.3420357,28.98 16.1591429,31.6061071 11.5854286,31.6061071" id="Fill-1" fill="#1A1918"/>
                <path d="M46.8173214,30.7592143 L46.8173214,7.76496429 L46.6472857,7.76496429 L41.9897857,30.7592143 L35.0446071,30.7592143 L30.7674286,7.76496429 L30.5982143,7.76496429 L30.5982143,30.7592143 L23.4838214,30.7592143 L23.4838214,1.11632143 L35.4676429,1.11632143 L38.6441071,20.8076071 L38.8133214,20.8076071 L42.2436071,1.11632143 L53.8881786,1.11632143 L53.8881786,30.7592143 L46.8173214,30.7592143" id="Fill-2" fill="#1A1918"/>
                <path d="M63.7116429,30.7592143 L55.5811429,30.7592143 L55.5811429,1.11632143 L63.7116429,1.11632143 L63.7116429,14.2443929 L68.5391786,1.11632143 L77.5592857,1.11632143 L71.5028929,15.1331786 L78.4899643,30.7592143 L69.0895357,30.7592143 L63.7116429,16.6150357 L63.7116429,30.7592143" id="Fill-3" fill="#1A1918"/>
                <path d="M91.8094286,24.2576071 C91.8094286,28.1298214 88.67075,31.2685 84.7993571,31.2685 C80.9279643,31.2685 77.7901071,28.1298214 77.7901071,24.2576071 C77.7901071,20.3870357 80.9279643,17.2483571 84.7993571,17.2483571 C88.67075,17.2483571 91.8094286,20.3870357 91.8094286,24.2576071" id="Fill-4" fill="#1A1918"/>
                <path d="M88.7331786,22.4471786 C88.4514286,22.4463571 88.1401071,22.5178214 87.8394643,22.67225 C87.8394643,21.9058571 87.2817143,21.62 86.6253929,21.62 C86.02575,21.62 85.3875,21.9814286 85.1443571,22.2138929 C85.1,22.0873929 85.0433214,21.9699286 84.9874643,21.8680714 C85.31275,21.7916786 85.5550714,21.5271786 85.5550714,21.2125714 C85.5550714,20.8757857 85.2798929,20.5965 84.9201071,20.54475 L84.9201071,20.1159643 L85.215,20.1159643 L85.215,20.1783929 C85.215,20.24575 85.2716786,20.3007857 85.3390357,20.3007857 C85.4063929,20.3007857 85.4606071,20.24575 85.4606071,20.1783929 L85.4606071,20.1159643 L85.5230357,20.1159643 C85.5903929,20.1159643 85.6454286,20.06175 85.6454286,19.9935714 C85.6454286,19.9262143 85.5903929,19.8703571 85.5230357,19.8703571 L85.4606071,19.8703571 L85.4606071,19.8095714 C85.4606071,19.7413929 85.4063929,19.6863571 85.3390357,19.6863571 C85.2716786,19.6863571 85.215,19.7413929 85.215,19.8095714 L85.215,19.8703571 L84.9201071,19.8703571 L84.9201071,19.5302857 L84.9808929,19.5302857 C85.0498929,19.5302857 85.1041071,19.47525 85.1041071,19.4070714 C85.1041071,19.3397143 85.0498929,19.2846786 84.9808929,19.2846786 L84.9201071,19.2846786 L84.9201071,19.2230714 C84.9201071,19.1548929 84.8650714,19.1006786 84.7960714,19.1006786 C84.7287143,19.1006786 84.6745,19.1548929 84.6745,19.2230714 L84.6745,19.2846786 L84.6137143,19.2846786 C84.5447143,19.2846786 84.4896786,19.3397143 84.4896786,19.4070714 C84.4896786,19.47525 84.5447143,19.5302857 84.6137143,19.5302857 L84.6745,19.5302857 L84.6745,19.8703571 L84.3796071,19.8703571 L84.3796071,19.8095714 C84.3796071,19.7413929 84.3245714,19.6863571 84.2555714,19.6863571 C84.1882143,19.6863571 84.134,19.7413929 84.134,19.8095714 L84.134,19.8703571 L84.0732143,19.8703571 C84.0042143,19.8703571 83.9491786,19.9262143 83.9491786,19.9935714 C83.9491786,20.06175 84.0042143,20.1159643 84.0732143,20.1159643 L84.134,20.1159643 L84.134,20.1783929 C84.134,20.24575 84.1882143,20.3007857 84.2555714,20.3007857 C84.3245714,20.3007857 84.3796071,20.24575 84.3796071,20.1783929 L84.3796071,20.1159643 L84.6745,20.1159643 L84.6745,20.54475 C84.3155357,20.5973214 84.0395357,20.8757857 84.0395357,21.2125714 C84.0395357,21.5271786 84.2802143,21.7916786 84.6071429,21.8680714 C84.5496429,21.9699286 84.4946071,22.0873929 84.4486071,22.2138929 C84.2062857,21.9814286 83.5688571,21.62 82.9692143,21.62 C82.31125,21.62 81.7543214,21.9058571 81.7543214,22.67225 C81.4536786,22.5178214 81.1431786,22.4463571 80.8606071,22.4471786 C79.9915357,22.4512857 79.3935357,23.1453929 80.2051071,24.24775 C80.3505,24.4440714 80.6585357,24.7660714 80.66675,25.024 C81.1768571,25.024 81.5736071,25.5899643 81.6409643,26.0433929 L82.3671071,26.0433929 C82.754,26.036 82.9708571,25.9752143 83.0718929,25.7238571 L83.0948929,25.7238571 C83.2468571,25.9505714 83.5368214,26.0425714 83.9048214,26.0425714 C84.3549643,26.0318929 84.6441071,25.8791071 84.7821071,25.65075 L84.8108571,25.65075 C84.9505,25.8791071 85.2396429,26.0318929 85.6897857,26.0425714 C86.0577857,26.0425714 86.34775,25.9505714 86.4988929,25.7238571 L86.5227143,25.7238571 C86.62375,25.9752143 86.8406071,26.036 87.2275,26.0433929 L87.9536429,26.0433929 C88.021,25.5899643 88.41775,25.024 88.9278571,25.024 C88.9360714,24.7660714 89.2449286,24.4440714 89.3895,24.24775 C90.20025,23.1453929 89.6030714,22.4512857 88.7331786,22.4471786 L88.7331786,22.4471786 Z M82.3128929,25.65075 L81.8832857,25.65075 C81.9629643,24.9714286 81.4241071,24.1064643 80.94275,24.5713929 C80.7628571,24.2995 80.6076071,24.0768929 80.5336786,23.8411429 C80.3348929,23.2004286 80.72425,22.9162143 81.2121786,22.9162143 C81.3789286,22.9162143 81.558,22.94825 81.7305,23.0098571 C81.8956071,23.5544643 82.087,23.77625 82.2816786,24.0005 C81.7124286,24.3266071 82.2644286,25.0765714 82.8796786,25.31725 C82.8887143,25.5850357 82.6767857,25.65075 82.3128929,25.65075 L82.3128929,25.65075 Z M83.9401429,25.5907857 C83.559,25.5907857 83.3396786,25.5185 83.2238571,25.2498929 C83.2238571,25.2498929 83.5212143,24.8252143 83.4505714,24.3693214 C83.3717143,23.8534643 82.9511429,23.644 82.6307857,23.8485357 C82.6307857,23.8485357 82.23075,23.3384286 82.3243929,22.8291429 C82.7909643,22.7856071 82.4122857,22.1605 83.20825,22.1605 C83.6542857,22.1605 84.0502143,22.3592857 84.3393571,22.6443214 C84.32375,22.8258571 84.4305357,23.0813214 84.594,23.1987857 L84.594,23.5823929 C83.7906429,23.6686429 83.8900357,24.7184286 84.5923571,25.1989643 L84.5989286,25.2030714 C84.4970714,25.4905714 84.249,25.5907857 83.9401429,25.5907857 L83.9401429,25.5907857 Z M86.1440357,24.3693214 C86.0733929,24.8252143 86.37075,25.2498929 86.37075,25.2498929 C86.2532857,25.5185 86.0347857,25.5907857 85.6544643,25.5907857 C85.3439643,25.5907857 85.0967143,25.4905714 84.9956786,25.2030714 L85.0014286,25.1989643 C85.7053929,24.7184286 85.8039643,23.6686429 84.9997857,23.5823929 L84.9997857,23.1987857 C85.1640714,23.0813214 85.2700357,22.8258571 85.25525,22.6443214 C85.5443929,22.3592857 85.9386786,22.1605 86.3863571,22.1605 C87.1823214,22.1605 86.8028214,22.7856071 87.2702143,22.8291429 C87.3630357,23.3384286 86.9621786,23.8485357 86.9621786,23.8485357 C86.6426429,23.644 86.2228929,23.8534643 86.1440357,24.3693214 L86.1440357,24.3693214 Z M89.0592857,23.8411429 C88.9853571,24.0768929 88.83175,24.2995 88.6518571,24.5713929 C88.1705,24.1064643 87.63,24.9714286 87.7096786,25.65075 L87.2817143,25.65075 C86.9178214,25.65075 86.7058929,25.5850357 86.7132857,25.31725 C87.3293571,25.0765714 87.8813571,24.3266071 87.3121071,24.0005 C87.5076071,23.77625 87.6973571,23.5544643 87.8624643,23.0098571 C88.0366071,22.94825 88.2156786,22.9162143 88.3824286,22.9162143 C88.8695357,22.9162143 89.2597143,23.2004286 89.0592857,23.8411429 L89.0592857,23.8411429 Z" id="Fill-5" fill="#FFFFFF"/>
                <path d="M81.6828571,28.0320714 L87.9125714,28.0320714 L87.9125714,26.4573929 L81.6828571,26.4573929 L81.6828571,28.0320714 Z M86.3009286,27.1983214 L86.6508571,26.72025 C86.6705714,26.6947857 86.7009643,26.6947857 86.7198571,26.72025 L87.0697857,27.1983214 C87.0878571,27.2246071 87.0878571,27.2656786 87.0697857,27.2919643 L86.7198571,27.7700357 C86.7009643,27.7955 86.6705714,27.7955 86.6508571,27.7700357 L86.3009286,27.2919643 C86.2836786,27.2656786 86.2836786,27.2246071 86.3009286,27.1983214 L86.3009286,27.1983214 Z M84.2235357,26.9083571 C84.2235357,26.8713929 84.2350357,26.8525 84.2621429,26.8442857 L84.7352857,26.7793929 L84.8576786,26.7793929 L85.3291786,26.8442857 C85.3579286,26.8525 85.3710714,26.8713929 85.3710714,26.9083571 L85.3710714,27.5737143 C85.3710714,27.6180714 85.3579286,27.6386071 85.3291786,27.6476429 L84.8519286,27.7117143 L84.7402143,27.7117143 L84.2621429,27.6476429 C84.2350357,27.6386071 84.2235357,27.6180714 84.2235357,27.5737143 L84.2235357,26.9083571 L84.2235357,26.9083571 Z M82.52975,27.1983214 L82.8796786,26.72025 C82.8985714,26.6947857 82.9289643,26.6947857 82.9478571,26.72025 L83.2969643,27.1983214 C83.3158571,27.2246071 83.3158571,27.2656786 83.2969643,27.2919643 L82.9478571,27.7700357 C82.9289643,27.7955 82.8985714,27.7955 82.8796786,27.7700357 L82.52975,27.2919643 C82.5116786,27.2656786 82.5116786,27.2246071 82.52975,27.1983214 L82.52975,27.1983214 Z" id="Fill-6" fill="#FFFFFF"/>
                <path d="M119.606,22.16 C119.606,18.322 117.098,16.08 112.044,14.826 C106.952,13.572 105.774,11.672 105.774,8.518 C105.774,4.262 108.244,2.742 111.892,2.742 C115.958,2.742 118.086,4.832 118.086,10.038 L118.998,10.038 C118.998,4.376 116.832,1.944 111.968,1.944 C107.864,1.944 104.824,3.692 104.824,8.632 C104.824,12.204 106.344,14.408 111.17,15.586 C116.49,16.916 118.656,19.006 118.656,22.198 C118.656,26.226 116.034,28.658 112.386,28.658 C108.016,28.658 105.166,26.454 105.166,20.944 L104.216,20.944 C104.216,27.062 107.37,29.456 112.272,29.456 C116.376,29.456 119.606,26.948 119.606,22.16 L119.606,22.16 Z M136.706,19.386 L136.706,16.346 C136.706,11.292 133.78,9.164 129.79,9.164 C125.838,9.164 122.912,11.482 122.912,16.346 L122.912,22.274 C122.912,27.138 125.876,29.456 129.828,29.456 C133.818,29.456 136.706,27.556 136.706,22.73 L136.706,22.578 L135.87,22.578 L135.87,22.806 C135.87,27.176 133.21,28.658 129.942,28.658 C126.256,28.658 123.786,26.378 123.786,22.312 L123.786,19.386 L136.706,19.386 Z M123.786,16.194 C123.786,12.204 126.256,9.924 129.79,9.924 C133.438,9.924 135.87,12.166 135.87,16.194 L135.87,18.664 L123.786,18.664 L123.786,16.194 Z M152.59,29 L153.464,29 L153.464,14.522 C153.464,10.912 150.766,9.164 147.232,9.164 C143.508,9.164 140.734,10.418 140.734,14.94 L141.532,14.94 C141.532,11.178 143.888,9.924 147.042,9.924 C150.196,9.924 152.59,11.558 152.59,14.636 L152.59,17.448 C142.52,17.448 139.974,18.664 139.974,23.908 C139.974,27.594 142.482,29.456 146.282,29.456 C149.588,29.456 151.754,27.936 152.438,26.568 L152.59,26.568 L152.59,29 Z M152.59,22.92 C152.59,26.796 150.272,28.658 146.472,28.658 C143.128,28.658 140.962,27.176 140.962,23.756 C140.962,19.576 142.634,18.208 152.59,18.208 L152.59,22.92 Z M167.448,9.392 C166.954,9.24 166.042,9.164 165.51,9.164 C162.052,9.164 159.962,10.874 159.05,13.268 L158.898,13.268 L158.898,9.62 L158.024,9.62 L158.024,29 L158.898,29 L158.898,17.334 C158.898,12.47 161.786,9.924 165.13,9.924 C165.776,9.924 166.726,10 167.41,10.19 L167.448,9.392 Z M182.876,16.878 L182.876,15.966 C182.876,11.33 180.178,9.164 176.074,9.164 C172.274,9.164 169.272,11.482 169.272,16.346 L169.272,22.312 C169.272,27.176 172.35,29.456 176.074,29.456 C179.912,29.456 182.876,27.746 182.876,22.654 L182.876,21.628 L182.04,21.628 L182.04,22.692 C182.04,27.29 179.342,28.658 176.074,28.658 C172.92,28.658 170.146,26.53 170.146,22.35 L170.146,16.308 C170.146,12.318 172.73,9.924 176.074,9.924 C179.684,9.924 182.04,12.242 182.04,15.966 L182.04,16.878 L182.876,16.878 Z M186.866,2.4 L186.866,29 L187.74,29 L187.74,15.358 C187.74,11.862 190.59,9.924 193.972,9.924 C197.088,9.924 199.52,11.634 199.52,15.358 L199.52,29 L200.394,29 L200.394,15.206 C200.394,11.178 197.772,9.164 194.162,9.164 C190.476,9.164 188.728,10.76 187.892,12.166 L187.74,12.166 L187.74,2.4 L186.866,2.4 Z M218.71,29 L218.71,28.24 L215.898,28.24 C213.77,28.24 212.896,27.176 212.896,24.44 L212.896,10.38 L218.71,10.38 L218.71,9.62 L212.896,9.62 L212.896,5.744 L212.022,5.744 L212.022,9.62 L209.514,9.62 L209.514,10.38 L212.022,10.38 L212.022,24.288 C212.022,28.05 213.314,29 215.67,29 L218.71,29 Z M221.75,2.4 L221.75,29 L222.624,29 L222.624,15.358 C222.624,11.862 225.474,9.924 228.856,9.924 C231.972,9.924 234.404,11.634 234.404,15.358 L234.404,29 L235.278,29 L235.278,15.206 C235.278,11.178 232.656,9.164 229.046,9.164 C225.36,9.164 223.612,10.76 222.776,12.166 L222.624,12.166 L222.624,2.4 L221.75,2.4 Z M253.252,19.386 L253.252,16.346 C253.252,11.292 250.326,9.164 246.336,9.164 C242.384,9.164 239.458,11.482 239.458,16.346 L239.458,22.274 C239.458,27.138 242.422,29.456 246.374,29.456 C250.364,29.456 253.252,27.556 253.252,22.73 L253.252,22.578 L252.416,22.578 L252.416,22.806 C252.416,27.176 249.756,28.658 246.488,28.658 C242.802,28.658 240.332,26.378 240.332,22.312 L240.332,19.386 L253.252,19.386 Z M240.332,16.194 C240.332,12.204 242.802,9.924 246.336,9.924 C249.984,9.924 252.416,12.166 252.416,16.194 L252.416,18.664 L240.332,18.664 L240.332,16.194 Z M276.736,16.878 L276.736,15.966 C276.736,11.33 274.038,9.164 269.934,9.164 C266.134,9.164 263.132,11.482 263.132,16.346 L263.132,22.312 C263.132,27.176 266.21,29.456 269.934,29.456 C273.772,29.456 276.736,27.746 276.736,22.654 L276.736,21.628 L275.9,21.628 L275.9,22.692 C275.9,27.29 273.202,28.658 269.934,28.658 C266.78,28.658 264.006,26.53 264.006,22.35 L264.006,16.308 C264.006,12.318 266.59,9.924 269.934,9.924 C273.544,9.924 275.9,12.242 275.9,15.966 L275.9,16.878 L276.736,16.878 Z M287.528,28.696 C284.412,28.696 281.22,26.454 281.22,22.198 L281.22,16.422 C281.22,12.09 284.298,9.924 287.528,9.924 C290.758,9.924 293.836,12.09 293.836,16.422 L293.836,22.198 C293.836,26.454 290.72,28.696 287.528,28.696 L287.528,28.696 Z M287.528,29.456 C291.48,29.456 294.71,26.758 294.71,22.274 L294.71,16.346 C294.71,11.862 291.48,9.164 287.528,9.164 C283.576,9.164 280.346,11.862 280.346,16.346 L280.346,22.274 C280.346,26.758 283.576,29.456 287.528,29.456 L287.528,29.456 Z M300.144,29 L300.144,2.4 L299.27,2.4 L299.27,29 L300.144,29 Z M306.338,29 L306.338,2.4 L305.464,2.4 L305.464,29 L306.338,29 Z M324.692,19.386 L324.692,16.346 C324.692,11.292 321.766,9.164 317.776,9.164 C313.824,9.164 310.898,11.482 310.898,16.346 L310.898,22.274 C310.898,27.138 313.862,29.456 317.814,29.456 C321.804,29.456 324.692,27.556 324.692,22.73 L324.692,22.578 L323.856,22.578 L323.856,22.806 C323.856,27.176 321.196,28.658 317.928,28.658 C314.242,28.658 311.772,26.378 311.772,22.312 L311.772,19.386 L324.692,19.386 Z M311.772,16.194 C311.772,12.204 314.242,9.924 317.776,9.924 C321.424,9.924 323.856,12.166 323.856,16.194 L323.856,18.664 L311.772,18.664 L311.772,16.194 Z M342.096,16.878 L342.096,15.966 C342.096,11.33 339.398,9.164 335.294,9.164 C331.494,9.164 328.492,11.482 328.492,16.346 L328.492,22.312 C328.492,27.176 331.57,29.456 335.294,29.456 C339.132,29.456 342.096,27.746 342.096,22.654 L342.096,21.628 L341.26,21.628 L341.26,22.692 C341.26,27.29 338.562,28.658 335.294,28.658 C332.14,28.658 329.366,26.53 329.366,22.35 L329.366,16.308 C329.366,12.318 331.95,9.924 335.294,9.924 C338.904,9.924 341.26,12.242 341.26,15.966 L341.26,16.878 L342.096,16.878 Z M353.762,29 L353.762,28.24 L350.95,28.24 C348.822,28.24 347.948,27.176 347.948,24.44 L347.948,10.38 L353.762,10.38 L353.762,9.62 L347.948,9.62 L347.948,5.744 L347.074,5.744 L347.074,9.62 L344.566,9.62 L344.566,10.38 L347.074,10.38 L347.074,24.288 C347.074,28.05 348.366,29 350.722,29 L353.762,29 Z M357.182,9.62 L357.182,29 L358.056,29 L358.056,9.62 L357.182,9.62 Z M357.182,5.554 L358.056,5.554 L358.056,2.4 L357.182,2.4 L357.182,5.554 Z M369.798,28.696 C366.682,28.696 363.49,26.454 363.49,22.198 L363.49,16.422 C363.49,12.09 366.568,9.924 369.798,9.924 C373.028,9.924 376.106,12.09 376.106,16.422 L376.106,22.198 C376.106,26.454 372.99,28.696 369.798,28.696 L369.798,28.696 Z M369.798,29.456 C373.75,29.456 376.98,26.758 376.98,22.274 L376.98,16.346 C376.98,11.862 373.75,9.164 369.798,9.164 C365.846,9.164 362.616,11.862 362.616,16.346 L362.616,22.274 C362.616,26.758 365.846,29.456 369.798,29.456 L369.798,29.456 Z M381.16,9.62 L381.16,29 L382.034,29 L382.034,15.358 C382.034,11.862 384.884,9.924 388.266,9.924 C391.382,9.924 393.814,11.634 393.814,15.358 L393.814,29 L394.688,29 L394.688,15.206 C394.688,11.178 392.066,9.164 388.456,9.164 C384.77,9.164 383.022,10.76 382.186,12.166 L382.034,12.166 L382.034,9.62 L381.16,9.62 Z" id="Search-the-collectio" fill="#1A1919"/>
            </g>
        </g>
    </g>
</svg>