<?xml version="1.0" standalone="no"?>
<!DOCTYPE svg PUBLIC "-//W3C//DTD SVG 1.1//EN" "http://www.w3.org/Graphics/SVG/1.1/DTD/svg11.dtd" >
<svg xmlns="http://www.w3.org/2000/svg">
<metadata></metadata>
<defs>
<font id="hilldemibold" horiz-adv-x="1024" >
<font-face units-per-em="2048" ascent="1638" descent="-410" />
<missing-glyph horiz-adv-x="327" />
<glyph horiz-adv-x="2048" />
<glyph horiz-adv-x="2048" />
<glyph unicode="&#xd;" horiz-adv-x="2048" />
<glyph unicode=" "  horiz-adv-x="327" />
<glyph unicode="&#x09;" horiz-adv-x="327" />
<glyph unicode="&#xa0;" horiz-adv-x="327" />
<glyph unicode="!" horiz-adv-x="538" d="M141 1434h256q-27 -500 -51 -983h-153q-16 319 -52 983zM145 0v244h248v-244h-248z" />
<glyph unicode="&#x22;" horiz-adv-x="731" d="M63 1434h256q-27 -189 -71 -533h-113q-33 255 -72 533zM412 1434h256q-39 -279 -72 -533h-113q-44 343 -71 533z" />
<glyph unicode="#" d="M102 424v139h152l53 309h-205v140h230l71 399h140l-70 -399h180l72 399h139l-71 -399h127v-140h-150l-55 -309h205v-139h-228l-74 -424h-141l74 424h-180l-76 -424h-139l75 424h-129zM393 563h182l54 309h-180z" />
<glyph unicode="$" d="M135 471v53h201v-55q0 -63 53 -97t123 -34q76 0 129 30t53 93q0 47 -31 81t-80 55t-109 40t-119.5 43t-108.5 56t-80 87.5t-31 130.5q0 107 79 186t210 101v193h184v-195q119 -22 186.5 -94.5t67.5 -186.5v-59h-194v68q0 54 -50 85t-116 31q-58 0 -107 -31t-49 -81 q0 -91 131 -140q21 -7 65.5 -20.5t78.5 -25t79 -30t77.5 -42t62.5 -54.5t45.5 -74.5t15.5 -95.5q0 -127 -80 -207.5t-213 -101.5v-180h-184v180q-134 18 -211.5 90.5t-77.5 200.5z" />
<glyph unicode="%" horiz-adv-x="1695" d="M92 1053q0 143 101 243.5t243 100.5q141 0 241.5 -101t100.5 -243q0 -141 -100.5 -241.5t-241.5 -100.5q-142 0 -243 100.5t-101 241.5zM242 1053q0 -79 56.5 -138t137.5 -59q78 0 136.5 59.5t58.5 137.5q0 79 -58.5 138.5t-136.5 59.5q-81 0 -137.5 -59t-56.5 -139z M369 -27l794 1461h154l-795 -1461h-153zM920 319q0 142 100.5 243.5t241.5 101.5t241.5 -101.5t100.5 -243.5q0 -141 -100.5 -240t-241.5 -99t-241.5 99t-100.5 240zM1069 319q0 -79 56 -137.5t137 -58.5q79 0 136.5 58.5t57.5 137.5q0 82 -57 140.5t-137 58.5 q-81 0 -137 -58.5t-56 -140.5z" />
<glyph unicode="&#x26;" horiz-adv-x="1228" d="M68 369q0 237 301 422q-109 189 -109 321q0 164 104 255t259 91q135 0 231 -90t96 -244q0 -69 -22.5 -128t-66.5 -107.5t-93 -85.5t-117 -76q113 -186 197 -291q58 91 147 287l174 -105q-88 -184 -196 -339q13 -12 36 -33.5t30.5 -28.5t24 -20t24.5 -16.5t23 -9.5 t29.5 -7.5t33.5 -1.5v-172q-112 4 -173 17t-92 34.5t-71 69.5q-151 -136 -361 -136q-61 0 -118.5 14t-110.5 45t-93 75.5t-63.5 111.5t-23.5 148zM291 377q0 -54 20 -95.5t52.5 -65t68 -35t72.5 -11.5q121 0 215 94q-123 151 -258 371q-170 -110 -170 -258zM475 1116 q0 -94 84 -237q86 48 134 111.5t48 133.5q0 75 -35 113.5t-92 38.5q-66 0 -102.5 -43.5t-36.5 -116.5z" />
<glyph unicode="'" horiz-adv-x="382" d="M63 1434h256q-27 -189 -71 -533h-113q-33 255 -72 533z" />
<glyph unicode="(" horiz-adv-x="696" d="M154 711q0 257 82 491t204 400h181q-110 -162 -186.5 -397t-76.5 -494q0 -257 79 -498t188 -406h-193q-119 161 -198.5 402.5t-79.5 501.5z" />
<glyph unicode=")" horiz-adv-x="696" d="M72 -193q108 165 187 406t79 498q0 259 -76 494.5t-186 396.5h180q123 -166 205 -400t82 -491q0 -260 -80 -501t-199 -403h-192z" />
<glyph unicode="*" horiz-adv-x="663" d="M43 1174l45 143l199 -94l-35 211h162l-31 -211l190 94l48 -141l-209 -39l145 -146l-129 -84l-98 180l-101 -180l-125 84l152 144z" />
<glyph unicode="+" d="M123 506v182h297v297h182v-297h299v-182h-299v-299h-182v299h-297z" />
<glyph unicode="," horiz-adv-x="382" d="M68 0v244h247v-264l-137 -297h-106l100 317h-104z" />
<glyph unicode="-" horiz-adv-x="557" d="M57 506v182h443v-182h-443z" />
<glyph unicode="." horiz-adv-x="382" d="M68 0v244h247v-244h-247z" />
<glyph unicode="/" horiz-adv-x="688" d="M0 -25l557 1483h131l-557 -1483h-131z" />
<glyph unicode="0" d="M92 362v682q0 180 121.5 285t298.5 105q115 0 208 -43t151.5 -133t58.5 -214v-679q0 -124 -58.5 -214t-151.5 -133t-208 -43q-177 0 -298.5 103.5t-121.5 283.5zM311 358q0 -95 58 -147.5t143 -52.5q86 0 143.5 51t57.5 143v705q0 91 -57.5 141.5t-143.5 50.5 q-84 0 -142.5 -51.5t-58.5 -142.5v-697z" />
<glyph unicode="1" horiz-adv-x="772" d="M43 1006v153q90 0 145 9t99 37.5t70 77t49 130.5h178v-1413h-219v1006h-322z" />
<glyph unicode="2" horiz-adv-x="1011" d="M88 958v80q0 121 57.5 212.5t152.5 137.5t212 46q176 0 292 -104t116 -281q0 -75 -20.5 -145.5t-62.5 -138t-78.5 -114.5t-94.5 -114l-304 -351h547v-186h-799v184l394 465q99 117 148.5 205t49.5 184q0 87 -57.5 147t-153.5 60q-87 0 -134.5 -60t-47.5 -151v-76h-217z " />
<glyph unicode="3" d="M70 387v49h217v-53q0 -117 58 -171t159 -54q87 0 145 60.5t58 189.5q0 115 -65.5 179t-174.5 64h-49v176h65q85 0 140 60t55 162q0 98 -50.5 149t-135.5 51q-79 0 -133 -55.5t-54 -153.5v-43h-217v43q0 182 112 288t298 106q171 0 284 -99.5t113 -263.5 q0 -114 -55.5 -198t-130.5 -121q93 -46 154 -130t61 -210q0 -106 -34.5 -190.5t-93.5 -137.5t-135.5 -81t-162.5 -28q-195 0 -311.5 109t-116.5 303z" />
<glyph unicode="4" d="M55 311v185l473 917h295v-926h113v-176h-113v-311h-215v311h-553zM252 487h356v709z" />
<glyph unicode="5" d="M98 418h219q0 -47 11.5 -91t34.5 -83t63 -62.5t92 -23.5q44 0 77 11.5t63.5 42t46.5 91.5t16 152q0 84 -13.5 139.5t-41.5 85t-63 40.5t-87 11q-148 0 -194 -151h-205v833h753v-186h-538v-408q28 37 92 65.5t133 28.5q381 0 381 -460q0 -241 -112 -359.5t-300 -118.5 q-204 0 -316 108t-112 335z" />
<glyph unicode="6" d="M109 373v674q0 180 120 283.5t297 103.5q193 0 289.5 -97.5t108.5 -289.5h-217q-6 92 -52.5 147t-134.5 55q-86 0 -139 -56.5t-53 -156.5v-229q27 32 95.5 62t151.5 30q172 0 271.5 -97t99.5 -284v-145q0 -97 -33.5 -174t-91.5 -125t-132.5 -73.5t-160.5 -25.5 q-85 0 -160.5 26t-133.5 75t-91.5 125.5t-33.5 171.5zM328 387q0 -115 56 -172t144 -57q87 0 144 55.5t57 167.5v125q0 106 -55.5 161.5t-145.5 55.5q-87 0 -143.5 -54t-56.5 -153v-129z" />
<glyph unicode="7" horiz-adv-x="968" d="M53 1227v186h815v-186l-428 -1227h-243l471 1227h-615z" />
<glyph unicode="8" d="M84 403q0 126 53.5 217t136.5 140q-66 45 -113.5 121t-47.5 174q0 170 112 274.5t287 104.5q174 0 285.5 -104.5t111.5 -274.5q0 -98 -47 -174t-114 -121q84 -49 138 -139.5t54 -217.5q0 -104 -35 -187.5t-95 -135t-136 -78.5t-162 -27q-87 0 -163 27t-136 79t-94.5 135 t-34.5 187zM301 412q0 -127 60 -190.5t151 -63.5q89 0 149 63.5t60 190.5q0 128 -59.5 191t-149.5 63q-91 0 -151 -63t-60 -191zM330 1047q0 -98 51.5 -153.5t130.5 -55.5q78 0 129 55.5t51 153.5q0 96 -52.5 149t-127.5 53q-77 0 -129.5 -53t-52.5 -149z" />
<glyph unicode="9" d="M80 911v123q0 97 33.5 174.5t91.5 126t132.5 74t160.5 25.5q85 0 160.5 -26t133.5 -75t92 -125.5t34 -171.5v-674q0 -180 -120.5 -283.5t-297.5 -103.5q-187 0 -288 99.5t-110 287.5h217q6 -94 52.5 -149t134.5 -55q86 0 139 56.5t53 156.5v254q-27 -33 -95.5 -64 t-151.5 -31q-172 0 -271.5 97t-99.5 284zM297 926q0 -106 55.5 -162.5t145.5 -56.5q87 0 143.5 54.5t56.5 153.5v105q0 116 -56 173.5t-144 57.5q-86 0 -143.5 -56.5t-57.5 -168.5v-100z" />
<glyph unicode=":" horiz-adv-x="382" d="M68 0v244h247v-244h-247zM68 778v244h247v-244h-247z" />
<glyph unicode=";" horiz-adv-x="382" d="M68 0v244h247v-264l-137 -297h-106q77 248 100 317h-104zM68 778v244h247v-244h-247z" />
<glyph unicode="&#x3c;" d="M123 506v182l778 434v-211l-600 -315l600 -336v-211z" />
<glyph unicode="=" d="M123 322v182h778v-182h-778zM123 690v182h778v-182h-778z" />
<glyph unicode="&#x3e;" d="M123 49v211l600 336l-600 315v211l778 -434v-182z" />
<glyph unicode="?" horiz-adv-x="960" d="M49 1014q0 208 111.5 326t308.5 118q179 0 294.5 -93.5t115.5 -266.5q0 -68 -20.5 -130t-51 -106.5t-66 -93.5t-67 -92t-53 -102t-23.5 -123h-215q0 96 28 176t68 133t80 101t68 104t28 118q0 87 -50.5 139t-147.5 52q-47 0 -81 -14.5t-54 -36.5t-32 -59t-16.5 -69.5 t-7.5 -80.5h-217zM367 0v244h249v-244h-249z" />
<glyph unicode="@" horiz-adv-x="1482" d="M82 637q0 136 22 250.5t60 197t91 147.5t111.5 106t126.5 68t131 37.5t128 10.5t127 -10.5t128 -37.5t122 -68t107 -106t87 -147.5t57 -197t21 -250.5q0 -128 -26 -227.5t-63.5 -156t-87.5 -93t-91 -48.5t-80 -12q-151 0 -191 111q-37 -107 -162 -107q-34 0 -63.5 10 t-64 41.5t-58.5 84t-40.5 145.5t-16.5 217q0 116 17 203.5t42.5 136t61 78t66 38.5t65.5 9q37 0 73.5 -21t55.5 -53v68h168v-770q0 -64 45 -64q19 0 37.5 5.5t45 30t46 65.5t33.5 121t14 188q0 155 -28.5 278t-74.5 200.5t-109 128t-127.5 71t-135.5 20.5t-136 -20.5 t-128.5 -71.5t-110 -128t-75 -200t-28.5 -278q0 -170 28.5 -303t75 -215t110.5 -135.5t128.5 -74t135.5 -20.5q142 0 233 64l88 -105q-136 -86 -321 -86q-66 0 -128.5 11t-130.5 39t-126.5 71t-111.5 112.5t-91 158t-60 212.5t-22 271zM625 600q0 -95 7.5 -165.5t19 -109.5 t28.5 -62.5t32 -30.5t33 -7q41 0 66 36t25 106v479q0 46 -24 71t-64 25q-123 0 -123 -342z" />
<glyph unicode="A" horiz-adv-x="1030" d="M10 0l359 1434h288l363 -1434h-234l-88 377h-376l-84 -377h-228zM360 557h297l-147 641h-6z" />
<glyph unicode="B" horiz-adv-x="1062" d="M133 0v1434h393q199 0 317 -103.5t118 -267.5q0 -94 -50 -179t-145 -126q112 -42 177 -127t65 -211q0 -86 -28.5 -160.5t-85 -133.5t-149.5 -92.5t-213 -33.5h-399zM365 184h151q124 0 191 64t67 176q0 109 -70.5 170t-181.5 61h-157v-471zM365 834h151q95 0 154 60 t59 157q0 98 -62.5 147t-164.5 49h-137v-413z" />
<glyph unicode="C" horiz-adv-x="1069" d="M98 434v584q0 197 128.5 318.5t320.5 121.5q204 0 323 -120t119 -324v-127h-227v117q0 121 -58.5 192.5t-158.5 71.5q-101 0 -158 -70.5t-57 -191.5v-588q0 -119 60.5 -185.5t154.5 -66.5q99 0 158 66t59 174v169h227v-159q0 -200 -119.5 -320.5t-324.5 -120.5 q-202 0 -324.5 120.5t-122.5 338.5z" />
<glyph unicode="D" horiz-adv-x="1132" d="M133 0v1434h418q230 0 358.5 -122t128.5 -333v-524q0 -207 -132 -331t-353 -124h-420zM365 184h186q111 0 183.5 69.5t72.5 186.5v551q0 113 -71.5 184.5t-182.5 71.5h-188v-1063z" />
<glyph unicode="E" horiz-adv-x="942" d="M133 0v1434h729v-187h-497v-416h436v-184h-436v-463h516v-184h-748z" />
<glyph unicode="F" horiz-adv-x="956" d="M133 0v1434h780v-187h-548v-436h487v-184h-487v-627h-232z" />
<glyph unicode="G" horiz-adv-x="1118" d="M98 434v574q0 197 133 323.5t332 126.5q209 0 333 -114t124 -320v-70h-225v68q0 111 -66 178.5t-170 67.5q-102 0 -165.5 -73t-63.5 -194v-583q0 -115 66 -183.5t163 -68.5q108 0 175 62.5t67 166.5v168h-185v176h404v-340q0 -190 -126.5 -307t-332.5 -117 q-74 0 -142 17.5t-126.5 54.5t-101.5 90.5t-68 129.5t-25 167z" />
<glyph unicode="H" horiz-adv-x="1155" d="M133 0v1434h232v-603h426v603h231v-1434h-231v647h-426v-647h-232z" />
<glyph unicode="I" horiz-adv-x="522" d="M145 0v1434h232v-1434h-232z" />
<glyph unicode="J" horiz-adv-x="972" d="M45 416v96h221v-104q0 -43 8.5 -82.5t26.5 -76.5t53.5 -59t83.5 -22q95 0 134.5 57t39.5 183v1026h232v-1018q0 -213 -106 -327t-300 -114q-199 0 -296 109t-97 332z" />
<glyph unicode="K" horiz-adv-x="1040" d="M133 0v1434h232v-637l399 637h256l-440 -676l495 -758h-276l-434 684v-684h-232z" />
<glyph unicode="L" horiz-adv-x="870" d="M133 0v1434h232v-1250h475v-184h-707z" />
<glyph unicode="M" horiz-adv-x="1536" d="M133 0v1434h385l244 -1141h10l258 1141h373v-1434h-219v1212h-10l-275 -1212h-262l-277 1212h-8v-1212h-219z" />
<glyph unicode="N" horiz-adv-x="1187" d="M133 0v1434h281l417 -1037h5v1037h219v-1434h-260l-441 1057h-4v-1057h-217z" />
<glyph unicode="O" horiz-adv-x="1130" d="M98 414v606q0 191 134.5 314.5t332.5 123.5q196 0 330.5 -123.5t134.5 -314.5v-606q0 -192 -134 -315.5t-331 -123.5q-198 0 -332.5 123.5t-134.5 315.5zM330 410q0 -111 67 -177.5t168 -66.5q100 0 167 66.5t67 177.5v614q0 110 -67.5 177t-166.5 67q-101 0 -168 -67 t-67 -177v-614z" />
<glyph unicode="P" horiz-adv-x="1064" d="M133 0v1434h434q204 0 323.5 -123.5t119.5 -311.5q0 -117 -54 -216t-159 -159.5t-240 -60.5h-192v-563h-232zM365 750h186q103 0 166 68.5t63 180.5q0 110 -61 179t-172 69h-182v-497z" />
<glyph unicode="Q" horiz-adv-x="1130" d="M98 414v606q0 191 134.5 314.5t332.5 123.5q196 0 330.5 -123.5t134.5 -314.5v-606q0 -105 -44.5 -193t-121.5 -147q44 -56 90 -82t103 -27v-203q-120 0 -205.5 47.5t-173.5 178.5q-60 -13 -113 -13q-198 0 -332.5 123.5t-134.5 315.5zM330 410q0 -111 67 -177.5 t168 -66.5q100 0 167 66.5t67 177.5v614q0 110 -67.5 177t-166.5 67q-101 0 -168 -67t-67 -177v-614z" />
<glyph unicode="R" horiz-adv-x="1079" d="M133 0v1434h442q131 0 227.5 -56.5t142.5 -146t46 -199.5q0 -142 -77 -244t-177 -141l342 -647h-262l-303 608h-149v-608h-232zM365 793h167q109 0 168.5 68.5t59.5 162.5q0 97 -57.5 160t-167.5 63h-170v-454z" />
<glyph unicode="S" horiz-adv-x="987" d="M55 465h232q0 -150 48 -224.5t167 -74.5q196 0 196 199q0 73 -23 118t-87.5 83t-190.5 77q-175 54 -252 151.5t-77 268.5q0 187 113 291t304 104q115 0 193 -29.5t124 -90.5t65.5 -145.5t19.5 -203.5h-228q0 162 -41 220.5t-139 58.5q-180 0 -180 -195 q0 -105 55.5 -156.5t202.5 -93.5q195 -58 284 -154.5t89 -273.5q0 -113 -35 -196.5t-96.5 -131t-136.5 -70t-164 -22.5q-226 0 -334.5 115t-108.5 375z" />
<glyph unicode="T" horiz-adv-x="980" d="M27 1247v187h927v-187h-348v-1247h-231v1247h-348z" />
<glyph unicode="U" horiz-adv-x="1165" d="M133 416v1018h232v-1020q0 -122 56.5 -185t160.5 -63q105 0 162 63t57 185v1020h231v-1018q0 -216 -122 -328.5t-328 -112.5t-327.5 112.5t-121.5 328.5z" />
<glyph unicode="V" horiz-adv-x="1030" d="M10 1434h232l276 -1168h4l269 1168h229l-358 -1434h-289z" />
<glyph unicode="W" horiz-adv-x="1624" d="M35 1434h239l185 -1137h4l239 1137h228l239 -1137h5l174 1137h239l-272 -1434h-281l-225 1042l-223 -1042h-275z" />
<glyph unicode="X" horiz-adv-x="1021" d="M12 0l363 739l-363 695h258l234 -486l227 486h244l-346 -693l381 -741h-252l-260 532l-248 -532h-238z" />
<glyph unicode="Y" horiz-adv-x="1019" d="M16 1434h242l258 -605l260 605h236l-387 -840v-594h-232v594z" />
<glyph unicode="Z" horiz-adv-x="884" d="M37 0v193l559 1054h-549v187h789v-189l-553 -1061h565v-184h-811z" />
<glyph unicode="[" horiz-adv-x="696" d="M195 -193v1797h407v-148h-190v-1503h192v-146h-409z" />
<glyph unicode="\" horiz-adv-x="688" d="M0 1458h131l557 -1483h-131z" />
<glyph unicode="]" horiz-adv-x="696" d="M90 -47h193v1503h-191v148h410v-1797h-412v146z" />
<glyph unicode="^" horiz-adv-x="509" d="M-10 1024l129 410h272l129 -410h-160l-106 297l-104 -297h-160z" />
<glyph unicode="_" d="M0 -121h1024v-182h-1024v182z" />
<glyph unicode="`" horiz-adv-x="509" d="M57 1434h246l148 -267h-183z" />
<glyph unicode="a" horiz-adv-x="919" d="M59 268q0 195 125.5 279t401.5 84v135q0 58 -36.5 90.5t-98.5 32.5q-152 0 -152 -139v-25h-209q0 344 363 344q160 0 257 -73.5t97 -229.5v-766h-203q-1 12 -4.5 54.5t-3.5 66.5h-8q-71 -146 -240 -146q-122 0 -205.5 78t-83.5 215zM283 295q0 -70 38 -105.5t107 -35.5 q71 0 113.5 43t42.5 133v153q-172 0 -236.5 -43t-64.5 -145z" />
<glyph unicode="b" horiz-adv-x="991" d="M113 0v1434h217v-504h8q68 139 254 139q61 0 115.5 -21.5t99 -63t70.5 -110.5t26 -157v-375q0 -172 -103.5 -269.5t-262.5 -97.5q-71 0 -139.5 35t-100.5 84l-49 -94h-135zM330 342q0 -81 47 -134.5t133 -53.5q84 0 130 50t46 138v356q0 88 -46 140.5t-130 52.5 q-80 0 -130 -51t-50 -140v-358z" />
<glyph unicode="c" horiz-adv-x="899" d="M88 360v322q0 184 101.5 285.5t273.5 101.5q171 0 266.5 -90.5t95.5 -269.5v-64h-215v92q0 80 -41 116t-110 36q-152 0 -152 -209v-313q0 -213 152 -213q65 0 108 35t43 116v96h215v-65q0 -180 -97 -270.5t-271 -90.5q-171 0 -270 100t-99 285z" />
<glyph unicode="d" horiz-adv-x="991" d="M88 317v394q0 172 97 265t249 93q72 0 131.5 -30.5t87.5 -80.5h9v476h217v-1434h-205v127h-8q-33 -72 -100.5 -112t-145.5 -40q-65 0 -122.5 19t-105.5 58t-76 107t-28 158zM303 354q0 -88 48.5 -139t131.5 -51q80 0 129.5 50.5t49.5 139.5v338q0 81 -46.5 135t-130.5 54 q-85 0 -133.5 -52t-48.5 -137v-338z" />
<glyph unicode="e" horiz-adv-x="935" d="M88 362v320q0 184 104 285.5t277 101.5t276 -96t103 -275v-243h-541v-117q0 -87 49 -135.5t119 -48.5q71 0 113.5 40t42.5 119v29h217v-8q0 -173 -100 -266t-283 -93q-172 0 -274.5 101.5t-102.5 285.5zM307 610h324v99q0 88 -45.5 134t-116.5 46t-116.5 -46t-45.5 -134 v-99z" />
<glyph unicode="f" horiz-adv-x="579" d="M31 870v174h131v109q0 150 68 215.5t198 65.5h145v-174h-84q-55 0 -83.5 -24.5t-28.5 -88.5v-103h182v-174h-182v-870h-215v870h-131z" />
<glyph unicode="g" horiz-adv-x="884" d="M23 -150q0 70 39 126t98 92q-72 54 -72 151q0 103 90 176q-112 97 -112 295q0 82 20.5 147.5t55.5 108.5t83.5 71t102 40t114.5 12q75 0 148 -25h295v-174h-105q37 -79 37 -180q0 -102 -30.5 -178t-84.5 -118.5t-118.5 -62.5t-141.5 -20q-68 0 -139 19q-33 -33 -33 -72 q0 -31 30 -52.5t77 -21.5h158q166 0 250.5 -75t84.5 -211q0 -104 -59 -180.5t-154 -114t-213 -37.5q-192 0 -306.5 74.5t-114.5 209.5zM227 -123q0 -65 56.5 -101t162.5 -36q102 0 157.5 38.5t55.5 104.5q0 129 -178 129h-123q-64 0 -97.5 -41t-33.5 -94zM276 686 q0 -207 166 -207q164 0 164 207t-164 207q-166 0 -166 -207z" />
<glyph unicode="h" horiz-adv-x="978" d="M113 0v1434h217v-500h8q29 52 94.5 93.5t149.5 41.5q120 0 202 -84.5t82 -236.5v-748h-215v717q0 67 -40.5 119.5t-108.5 52.5q-75 0 -123.5 -52.5t-48.5 -131.5v-705h-217z" />
<glyph unicode="i" horiz-adv-x="466" d="M125 0v1044h217v-1044h-217zM125 1225v209h217v-209h-217z" />
<glyph unicode="j" horiz-adv-x="462" d="M-39 -236h59q53 0 78 24.5t25 82.5v1173h217v-1183q0 -147 -64 -209t-194 -62h-121v174zM123 1225v209h217v-209h-217z" />
<glyph unicode="k" horiz-adv-x="888" d="M113 0v1434h219v-828l299 438h241l-321 -462l371 -582h-256l-334 539v-539h-219z" />
<glyph unicode="l" horiz-adv-x="466" d="M125 0v1434h217v-1434h-217z" />
<glyph unicode="m" horiz-adv-x="1474" d="M113 0v1044h213v-114q94 139 239 139q76 0 137 -40.5t97 -108.5q34 60 104.5 104.5t165.5 44.5q128 0 210.5 -88t82.5 -254v-727h-217v719q0 78 -36.5 124t-111.5 46q-77 0 -114 -48.5t-37 -133.5v-707h-215v719q0 67 -39 118.5t-105 51.5q-74 0 -115.5 -52t-41.5 -130 v-707h-217z" />
<glyph unicode="n" horiz-adv-x="978" d="M113 0v1044h213v-114h8q27 52 95 95.5t153 43.5q120 0 202 -84.5t82 -236.5v-748h-215v717q0 67 -40.5 119.5t-108.5 52.5q-75 0 -123.5 -52.5t-48.5 -131.5v-705h-217z" />
<glyph unicode="o" horiz-adv-x="970" d="M88 362v318q0 177 112.5 283t284.5 106q174 0 286 -104.5t112 -284.5v-318q0 -179 -112.5 -283t-285.5 -104t-285 105.5t-112 281.5zM307 360q0 -99 47.5 -152.5t130.5 -53.5q85 0 133 53t48 153v324q0 99 -48.5 153t-132.5 54q-83 0 -130.5 -54.5t-47.5 -154.5v-322z " />
<glyph unicode="p" horiz-adv-x="991" d="M113 -410v1454h209l2 -129h8q35 74 104.5 114t155.5 40q132 0 221.5 -88t89.5 -254v-405q0 -168 -100.5 -257.5t-251.5 -89.5q-67 0 -125.5 29.5t-93.5 75.5v-490h-219zM332 342q0 -81 45 -134.5t129 -53.5q85 0 132.5 49t47.5 133v364q0 87 -46.5 139t-127.5 52 q-80 0 -130 -51t-50 -140v-358z" />
<glyph unicode="q" horiz-adv-x="991" d="M88 317v394q0 173 100.5 265.5t266.5 92.5q69 0 137 -35.5t96 -83.5q3 0 9 7.5t13 20.5t12.5 24l12.5 25t8 17h136v-1454h-217v525h-9q-35 -68 -95 -104t-138 -36q-65 0 -122.5 19t-105.5 58t-76 107t-28 158zM303 346q0 -88 48.5 -140t131.5 -52q80 0 129.5 50.5 t49.5 139.5v356q0 82 -46.5 135.5t-130.5 53.5q-85 0 -133.5 -52t-48.5 -137v-354z" />
<glyph unicode="r" horiz-adv-x="649" d="M113 0v1044h211v-186h8q23 94 95 150.5t173 56.5q29 0 41 -2v-223q-25 4 -66 4q-46 0 -86.5 -12t-77.5 -38t-59 -74.5t-22 -115.5v-604h-217z" />
<glyph unicode="s" horiz-adv-x="845" d="M53 350h209q0 -95 46 -149t124 -54q71 0 109.5 34t38.5 102q0 73 -47 107t-179 59q-142 26 -213 99t-71 216q0 141 91.5 223t258.5 82q163 0 246.5 -90.5t83.5 -257.5h-207q0 94 -34.5 134t-98.5 40q-125 0 -125 -127q0 -75 35 -105t153 -51q174 -33 247 -103t73 -214 q0 -151 -98.5 -235.5t-260.5 -84.5q-187 0 -284 86.5t-97 288.5z" />
<glyph unicode="t" horiz-adv-x="600" d="M31 870v174h135v211h217v-211h184v-174h-184v-575q0 -71 18.5 -97t71.5 -26h96v-172h-159q-68 0 -110.5 10t-74.5 38.5t-45.5 81t-13.5 136.5v604h-135z" />
<glyph unicode="u" horiz-adv-x="954" d="M113 297v747h215v-722q0 -168 143 -168q71 0 111.5 48.5t40.5 123.5v718h219v-1044h-211v111h-8q-79 -136 -224 -136q-124 0 -205 83t-81 239z" />
<glyph unicode="v" horiz-adv-x="847" d="M6 1044h232l184 -841l196 841h224l-289 -1044h-270z" />
<glyph unicode="w" horiz-adv-x="1384" d="M25 1044h215l149 -847l193 847h229l176 -825l166 825h207l-242 -1044h-256l-170 795l-178 -795h-258z" />
<glyph unicode="x" horiz-adv-x="806" d="M-10 0l289 543l-279 501h231l164 -325h4l152 325h215l-258 -497l309 -547h-231l-191 373h-4l-180 -373h-221z" />
<glyph unicode="y" horiz-adv-x="849" d="M6 1044h227l193 -729l195 729h223l-443 -1454h-219l135 410z" />
<glyph unicode="z" horiz-adv-x="735" d="M27 0v172l450 698h-430v174h658v-178l-439 -694h449v-172h-688z" />
<glyph unicode="{" horiz-adv-x="696" d="M90 616v191h19q56 2 90 38.5t34 106.5v342q0 160 58.5 234t179.5 74h129v-146h-61q-43 0 -65.5 -31.5t-22.5 -64.5v-320q0 -106 -24 -175t-60 -100.5t-93 -49.5q177 -56 177 -340v-326q0 -33 22.5 -64.5t65.5 -31.5h61v-146h-129q-121 0 -179.5 74t-58.5 234v356 q0 71 -34.5 108t-89.5 37h-19z" />
<glyph unicode="|" horiz-adv-x="579" d="M236 -27v1485h108v-1485h-108z" />
<glyph unicode="}" horiz-adv-x="696" d="M96 -45h62q43 0 65.5 30.5t22.5 63.5v289q0 179 43 263.5t133 113.5q-61 20 -97 53.5t-57.5 108.5t-21.5 198v285q0 33 -22.5 64.5t-65.5 31.5h-62v146h129q128 0 183 -80.5t55 -266.5v-303q0 -70 34.5 -106.5t90.5 -38.5h18v-191h-18q-55 0 -91 -37.5t-36 -107.5v-356 q0 -160 -58.5 -234t-177.5 -74h-129v148z" />
<glyph unicode="~" horiz-adv-x="1105" d="M137 514q8 123 71 190.5t185 67.5q61 0 128 -25.5t121 -51t83 -25.5q51 0 71 15.5t21 68.5h162q-5 -132 -59.5 -194t-180.5 -62q-54 0 -120 26.5t-125.5 53t-96.5 26.5q-48 0 -67.5 -22t-22.5 -68h-170z" />
<glyph unicode="&#xa1;" horiz-adv-x="538" d="M141 -399q36 664 52 983h153q24 -483 51 -983h-256zM145 788v246h248v-246h-248z" />
<glyph unicode="&#xa2;" horiz-adv-x="1105" d="M172 561v299q0 160 78.5 257.5t214.5 121.5v195h184v-195q132 -24 207.5 -112.5t75.5 -239.5v-23h-217v49q0 80 -44.5 118t-117.5 38q-70 0 -116 -42.5t-46 -123.5v-377q0 -82 46.5 -128t115.5 -46q71 0 116.5 39.5t45.5 118.5v55h217v-41q0 -143 -74.5 -230.5 t-208.5 -111.5v-182h-184v180q-137 25 -215 123.5t-78 257.5z" />
<glyph unicode="&#xa3;" horiz-adv-x="1064" d="M102 0v182l60 2q51 1 67.5 29t16.5 104v318h-123v186h123v207q0 187 93 287t263 100q167 0 261.5 -90t94.5 -260v-12h-217v41q0 143 -139 143q-137 0 -137 -168v-248h293v-186h-293v-236q0 -136 -80 -200v-6h600v-193h-883z" />
<glyph unicode="&#xa5;" horiz-adv-x="1034" d="M27 1434h260l233 -615l221 615h250l-258 -605h189v-176h-263l-30 -73v-80h293v-176h-293v-324h-226v324h-290v176h290v84l-30 69h-260v176h182z" />
<glyph unicode="&#xa8;" horiz-adv-x="509" d="M8 1235v199h207v-199h-207zM295 1235v199h207v-199h-207z" />
<glyph unicode="&#xa9;" horiz-adv-x="763" d="M86 1161q0 124 85.5 210.5t209.5 86.5q125 0 211 -86.5t86 -208.5q0 -124 -84.5 -210.5t-212.5 -86.5q-126 0 -210.5 86t-84.5 209zM166 1161q0 -91 60.5 -153t154.5 -62q95 0 156 62t61 153t-62 154t-155 63q-92 0 -153.5 -63t-61.5 -154zM233 1161q0 61 44.5 105.5 t105.5 44.5q53 0 92 -33.5t45 -85.5h-82q-3 17 -20.5 26t-38.5 9q-27 0 -44.5 -19t-17.5 -47q0 -27 18.5 -45t45.5 -18q22 0 39 10.5t20 28.5h82q-4 -53 -44 -88t-95 -35q-61 0 -105.5 43.5t-44.5 103.5z" />
<glyph unicode="&#xab;" horiz-adv-x="847" d="M61 530l185 371h182l-174 -364l174 -373h-182zM420 530l184 371h182l-174 -364l174 -373h-182z" />
<glyph unicode="&#xad;" horiz-adv-x="557" d="M57 506v182h443v-182h-443z" />
<glyph unicode="&#xae;" horiz-adv-x="763" d="M86 1161q0 124 85.5 210.5t209.5 86.5q125 0 211 -86.5t86 -208.5q0 -124 -84.5 -210.5t-212.5 -86.5q-126 0 -210.5 86t-84.5 209zM166 1161q0 -91 60.5 -153t154.5 -62q95 0 156 62t61 153t-62 154t-155 63q-92 0 -153.5 -63t-61.5 -154zM260 1018v282h143 q101 0 101 -88q0 -28 -16.5 -53t-47.5 -29l84 -112h-96l-63 94h-25v-94h-80zM340 1165h47q18 0 28.5 12.5t10.5 30.5q0 35 -35 35h-51v-78z" />
<glyph unicode="&#xb4;" horiz-adv-x="509" d="M57 1167l150 267h244l-211 -267h-183z" />
<glyph unicode="&#xb8;" horiz-adv-x="509" d="M23 -285h137q7 -53 86 -53q98 0 98 72q0 45 -31 61.5t-112 16.5h-84l20 188h127l-8 -96q121 0 176 -44t55 -110q0 -54 -21.5 -92.5t-59 -57t-76 -26.5t-84.5 -8q-114 0 -167.5 41t-55.5 108z" />
<glyph unicode="&#xbb;" horiz-adv-x="847" d="M61 164l175 373l-175 364h183l184 -371l-184 -366h-183zM420 164l174 373l-174 364h182l184 -371l-184 -366h-182z" />
<glyph unicode="&#xbf;" horiz-adv-x="960" d="M82 -53q0 80 28 151t68.5 125t81 107t70.5 121t32 143h216q0 -82 -20 -152t-50.5 -116.5t-66 -93.5t-66 -83.5t-50.5 -85.5t-20 -102q0 -86 51 -138t148 -52q47 0 81 14.5t53.5 36.5t31.5 59t16.5 69.5t7.5 80.5h217q0 -208 -111 -326.5t-308 -118.5q-179 0 -294.5 94 t-115.5 267zM344 801v243h250v-243h-250z" />
<glyph unicode="&#xc0;" horiz-adv-x="1030" d="M10 0l359 1434h288l363 -1434h-234l-88 377h-376l-84 -377h-228zM229 1812h246l148 -266h-183zM360 557h297l-147 641h-6z" />
<glyph unicode="&#xc1;" horiz-adv-x="1030" d="M10 0l359 1434h288l363 -1434h-234l-88 377h-376l-84 -377h-228zM360 557h297l-147 641h-6zM418 1546l149 266h244l-211 -266h-182z" />
<glyph unicode="&#xc2;" horiz-adv-x="1030" d="M10 0l359 1434h288l363 -1434h-234l-88 377h-376l-84 -377h-228zM258 1546l129 266h272l129 -266h-159l-107 154l-104 -154h-160zM360 557h297l-147 641h-6z" />
<glyph unicode="&#xc4;" horiz-adv-x="1030" d="M10 0l359 1434h288l363 -1434h-234l-88 377h-376l-84 -377h-228zM274 1614v198h207v-198h-207zM360 557h297l-147 641h-6zM561 1614v198h207v-198h-207z" />
<glyph unicode="&#xc5;" horiz-adv-x="1042" d="M14 0q130 534 316 1286q-76 76 -76 182q0 104 78 180t184 76q105 0 183.5 -76t78.5 -180q0 -103 -71 -174q88 -347 321 -1294h-235l-84 375h-381q-14 -63 -40.5 -188t-41.5 -187h-232zM367 559h301l-142 635l-39 -59zM389 1468q0 -56 36.5 -95.5t90.5 -39.5 q52 0 89.5 39.5t37.5 95.5q0 55 -37 93t-90 38q-54 0 -90.5 -37.5t-36.5 -93.5z" />
<glyph unicode="&#xc6;" horiz-adv-x="1538" d="M2 0l520 1434h934v-187h-471v-416h412v-184h-412v-463h492v-184h-723v371h-379l-125 -371h-248zM438 561h316v686h-82z" />
<glyph unicode="&#xc7;" horiz-adv-x="1069" d="M98 434v584q0 197 128.5 318.5t320.5 121.5q204 0 323 -120t119 -324v-127h-227v117q0 121 -58.5 192.5t-158.5 71.5q-101 0 -158 -70.5t-57 -191.5v-588q0 -119 60.5 -185.5t154.5 -66.5q99 0 158 66t59 174v169h227v-159q0 -200 -119.5 -320.5t-324.5 -120.5 q-202 0 -324.5 120.5t-122.5 338.5zM375 -285h137q7 -53 86 -53q98 0 98 72q0 45 -31 61.5t-112 16.5h-84l20 188h127l-8 -96q121 0 176.5 -44t55.5 -110q0 -44 -15 -77.5t-38.5 -53t-56.5 -32t-64.5 -17t-67.5 -4.5q-114 0 -167.5 41t-55.5 108z" />
<glyph unicode="&#xc8;" horiz-adv-x="942" d="M133 0v1434h729v-187h-497v-416h436v-184h-436v-463h516v-184h-748zM256 1812h246l147 -266h-182z" />
<glyph unicode="&#xc9;" horiz-adv-x="942" d="M133 0v1434h729v-187h-497v-416h436v-184h-436v-463h516v-184h-748zM346 1546l150 266h243l-211 -266h-182z" />
<glyph unicode="&#xca;" horiz-adv-x="942" d="M133 0v1434h729v-187h-497v-416h436v-184h-436v-463h516v-184h-748zM225 1546l129 266h273l129 -266h-160l-107 154l-104 -154h-160z" />
<glyph unicode="&#xcb;" horiz-adv-x="942" d="M133 0v1434h729v-187h-497v-416h436v-184h-436v-463h516v-184h-748zM238 1614v198h206v-198h-206zM524 1614v198h207v-198h-207z" />
<glyph unicode="&#xcd;" horiz-adv-x="522" d="M145 0v1434h232v-1434h-232zM180 1546l150 266h243l-211 -266h-182z" />
<glyph unicode="&#xce;" horiz-adv-x="522" d="M18 1546l129 266h273l129 -266h-160l-106 154l-105 -154h-160zM145 0v1434h232v-1434h-232z" />
<glyph unicode="&#xcf;" horiz-adv-x="522" d="M37 1614v198h207v-198h-207zM145 0v1434h232v-1434h-232zM324 1614v198h206v-198h-206z" />
<glyph unicode="&#xd0;" horiz-adv-x="1132" d="M61 649v185h72v600h418q230 0 358.5 -122t128.5 -333v-524q0 -207 -132 -331t-353 -124h-420v649h-72zM365 184h186q111 0 183.5 69.5t72.5 186.5v551q0 113 -71.5 184.5t-182.5 71.5h-188v-413h204v-185h-204v-465z" />
<glyph unicode="&#xd1;" horiz-adv-x="1187" d="M133 0v1434h281l417 -1037h5v1037h219v-1434h-260l-441 1057h-4v-1057h-217zM264 1663q21 54 66 92.5t119 38.5q47 0 118 -26.5t103 -26.5q31 0 47.5 12.5t30.5 38.5l108 -82q-53 -125 -190 -125q-68 0 -133.5 26.5t-88.5 26.5q-49 0 -73 -49q-92 59 -107 74z" />
<glyph unicode="&#xd2;" horiz-adv-x="1144" d="M131 414v606q0 191 134.5 314.5t332.5 123.5q196 0 330.5 -123.5t134.5 -314.5v-606q0 -192 -134 -315.5t-331 -123.5q-198 0 -332.5 123.5t-134.5 315.5zM272 1812h246l148 -266h-183zM362 410q0 -111 67.5 -177.5t168.5 -66.5q100 0 166.5 66.5t66.5 177.5v614 q0 110 -67 177t-166 67q-101 0 -168.5 -67t-67.5 -177v-614z" />
<glyph unicode="&#xd3;" horiz-adv-x="1144" d="M131 414v606q0 191 134.5 314.5t332.5 123.5q196 0 330.5 -123.5t134.5 -314.5v-606q0 -192 -134 -315.5t-331 -123.5q-198 0 -332.5 123.5t-134.5 315.5zM362 410q0 -111 67.5 -177.5t168.5 -66.5q100 0 166.5 66.5t66.5 177.5v614q0 110 -67 177t-166 67 q-101 0 -168.5 -67t-67.5 -177v-614zM444 1546l150 266h244l-211 -266h-183z" />
<glyph unicode="&#xd4;" horiz-adv-x="1144" d="M131 414v606q0 191 134.5 314.5t332.5 123.5q196 0 330.5 -123.5t134.5 -314.5v-606q0 -192 -134 -315.5t-331 -123.5q-198 0 -332.5 123.5t-134.5 315.5zM309 1546l129 266h273l129 -266h-160l-107 154l-104 -154h-160zM362 410q0 -111 67.5 -177.5t168.5 -66.5 q100 0 166.5 66.5t66.5 177.5v614q0 110 -67 177t-166 67q-101 0 -168.5 -67t-67.5 -177v-614z" />
<glyph unicode="&#xd6;" horiz-adv-x="1144" d="M131 414v606q0 191 134.5 314.5t332.5 123.5q196 0 330.5 -123.5t134.5 -314.5v-606q0 -192 -134 -315.5t-331 -123.5q-198 0 -332.5 123.5t-134.5 315.5zM324 1614v198h206v-198h-206zM362 410q0 -111 67.5 -177.5t168.5 -66.5q100 0 166.5 66.5t66.5 177.5v614 q0 110 -67 177t-166 67q-101 0 -168.5 -67t-67.5 -177v-614zM610 1614v198h207v-198h-207z" />
<glyph unicode="&#xd8;" horiz-adv-x="1130" d="M98 414v606q0 191 134.5 314.5t332.5 123.5q196 0 330.5 -123.5t134.5 -314.5v-606q0 -192 -134 -315.5t-331 -123.5q-198 0 -332.5 123.5t-134.5 315.5zM330 500l436 637q-26 63 -79.5 97t-121.5 34q-101 0 -168 -67t-67 -177v-524zM362 289q27 -60 80.5 -91.5 t122.5 -31.5q100 0 167 66.5t67 177.5v53v461z" />
<glyph unicode="&#xd9;" horiz-adv-x="1165" d="M133 416v1018h232v-1020q0 -122 56.5 -185t160.5 -63q105 0 162 63t57 185v1020h231v-1018q0 -216 -122 -328.5t-328 -112.5t-327.5 112.5t-121.5 328.5zM340 1812h246l147 -266h-182z" />
<glyph unicode="&#xda;" horiz-adv-x="1165" d="M133 416v1018h232v-1020q0 -122 56.5 -185t160.5 -63q105 0 162 63t57 185v1020h231v-1018q0 -216 -122 -328.5t-328 -112.5t-327.5 112.5t-121.5 328.5zM414 1546l149 266h244l-211 -266h-182z" />
<glyph unicode="&#xdb;" horiz-adv-x="1165" d="M133 416v1018h232v-1020q0 -122 56.5 -185t160.5 -63q105 0 162 63t57 185v1020h231v-1018q0 -216 -122 -328.5t-328 -112.5t-327.5 112.5t-121.5 328.5zM313 1546l129 266h273l129 -266h-160l-106 154l-105 -154h-160z" />
<glyph unicode="&#xdc;" horiz-adv-x="1165" d="M133 416v1018h232v-1020q0 -122 56.5 -185t160.5 -63q105 0 162 63t57 185v1020h231v-1018q0 -216 -122 -328.5t-328 -112.5t-327.5 112.5t-121.5 328.5zM326 1614v198h206v-198h-206zM612 1614v198h207v-198h-207z" />
<glyph unicode="&#xdd;" horiz-adv-x="1019" d="M16 1434h242l258 -605l260 605h236l-387 -840v-594h-232v594zM360 1540l150 266h244l-211 -266h-183z" />
<glyph unicode="&#xdf;" horiz-adv-x="1030" d="M113 0v1063q0 86 22 155t69 124t130.5 85.5t197.5 30.5q169 0 274 -113t105 -282q0 -47 -9.5 -91.5t-30.5 -87.5t-60 -76.5t-92 -49.5q239 -83 239 -340q0 -91 -23 -165.5t-70 -132t-126.5 -89t-185.5 -31.5h-90v184h33q73 0 121 17t73.5 51.5t35 76.5t9.5 103 q0 118 -63 172.5t-170 54.5h-39v177h31q196 0 196 213q0 217 -180 217q-98 0 -139 -55t-41 -162v-1049h-217z" />
<glyph unicode="&#xe0;" horiz-adv-x="919" d="M59 268q0 195 125.5 279t401.5 84v135q0 58 -36.5 90.5t-98.5 32.5q-152 0 -152 -139v-25h-209q0 344 363 344q160 0 257 -73.5t97 -229.5v-766h-203q-1 12 -4.5 54.5t-3.5 66.5h-8q-71 -146 -240 -146q-122 0 -205.5 78t-83.5 215zM205 1434h246l147 -267h-182zM283 295 q0 -70 38 -105.5t107 -35.5q71 0 113.5 43t42.5 133v153q-172 0 -236.5 -43t-64.5 -145z" />
<glyph unicode="&#xe1;" horiz-adv-x="919" d="M59 268q0 195 125.5 279t401.5 84v135q0 58 -36.5 90.5t-98.5 32.5q-152 0 -152 -139v-25h-209q0 344 363 344q160 0 257 -73.5t97 -229.5v-766h-203q-1 12 -4.5 54.5t-3.5 66.5h-8q-71 -146 -240 -146q-122 0 -205.5 78t-83.5 215zM283 295q0 -70 38 -105.5t107 -35.5 q71 0 113.5 43t42.5 133v153q-172 0 -236.5 -43t-64.5 -145zM295 1167l149 267h244l-211 -267h-182z" />
<glyph unicode="&#xe2;" horiz-adv-x="919" d="M59 268q0 195 125.5 279t401.5 84v135q0 58 -36.5 90.5t-98.5 32.5q-152 0 -152 -139v-25h-209q0 344 363 344q160 0 257 -73.5t97 -229.5v-766h-203q-1 12 -4.5 54.5t-3.5 66.5h-8q-71 -146 -240 -146q-122 0 -205.5 78t-83.5 215zM182 1167l129 267h273l129 -267h-160 l-107 154l-104 -154h-160zM283 295q0 -70 38 -105.5t107 -35.5q71 0 113.5 43t42.5 133v153q-172 0 -236.5 -43t-64.5 -145z" />
<glyph unicode="&#xe4;" horiz-adv-x="919" d="M59 268q0 195 125.5 279t401.5 84v135q0 58 -36.5 90.5t-98.5 32.5q-152 0 -152 -139v-25h-209q0 344 363 344q160 0 257 -73.5t97 -229.5v-766h-203q-1 12 -4.5 54.5t-3.5 66.5h-8q-71 -146 -240 -146q-122 0 -205.5 78t-83.5 215zM207 1235v199h207v-199h-207zM283 295 q0 -70 38 -105.5t107 -35.5q71 0 113.5 43t42.5 133v153q-172 0 -236.5 -43t-64.5 -145zM494 1235v199h206v-199h-206z" />
<glyph unicode="&#xe5;" horiz-adv-x="919" d="M59 268q0 195 125.5 279t401.5 84v135q0 58 -36.5 90.5t-98.5 32.5q-152 0 -152 -139v-25h-209q0 344 363 344q160 0 257 -73.5t97 -229.5v-766h-203q-1 12 -4.5 54.5t-3.5 66.5h-8q-71 -146 -240 -146q-122 0 -205.5 78t-83.5 215zM262 1358q0 78 58.5 134t138.5 56 q79 0 137.5 -56.5t58.5 -133.5q0 -81 -58.5 -138t-137.5 -57q-80 0 -138.5 57t-58.5 138zM283 295q0 -70 38 -105.5t107 -35.5q71 0 113.5 43t42.5 133v153q-172 0 -236.5 -43t-64.5 -145zM365 1358q0 -42 27.5 -71.5t66.5 -29.5t66.5 29.5t27.5 71.5q0 40 -27.5 69 t-66.5 29t-66.5 -29t-27.5 -69z" />
<glyph unicode="&#xe6;" horiz-adv-x="1421" d="M59 268q0 195 125.5 279t401.5 84v135q0 58 -36.5 90.5t-98.5 32.5q-152 0 -152 -139l-39 -25h-170q0 344 363 344q170 0 256 -86q95 86 247 86q173 0 275 -96t102 -275v-231h-538v-129q0 -91 45.5 -137.5t122.5 -46.5q67 0 110 41t43 118v29h217v-8q0 -173 -100 -266 t-283 -93q-225 0 -311 168q-89 -168 -291 -168q-122 0 -205.5 78t-83.5 215zM283 295q0 -70 38 -105.5t107 -35.5q71 0 113.5 43t42.5 133v153q-172 0 -236.5 -43t-64.5 -145zM795 623h321v86q0 88 -45 134t-115 46q-72 0 -116.5 -45.5t-44.5 -134.5v-86z" />
<glyph unicode="&#xe7;" horiz-adv-x="899" d="M88 360v322q0 184 101.5 285.5t273.5 101.5q171 0 266.5 -90.5t95.5 -269.5v-64h-215v92q0 80 -41 116t-110 36q-152 0 -152 -209v-313q0 -213 152 -213q65 0 108 35t43 116v96h215v-65q0 -180 -97 -270.5t-271 -90.5l-6 -71q121 0 176 -44t55 -110q0 -44 -15 -77.5 t-38.5 -53t-56.5 -32t-64.5 -17t-67.5 -4.5q-114 0 -167.5 41t-55.5 108h137q7 -53 86 -53q99 0 99 72q0 45 -31.5 61.5t-112.5 16.5h-84q18 134 21 180q-116 33 -180 126.5t-64 241.5z" />
<glyph unicode="&#xe8;" horiz-adv-x="935" d="M88 362v320q0 184 104 285.5t277 101.5t276 -96t103 -275v-243h-541v-117q0 -87 49 -135.5t119 -48.5q71 0 113.5 40t42.5 119v29h217v-8q0 -173 -100 -266t-283 -93q-172 0 -274.5 101.5t-102.5 285.5zM199 1434h245l148 -267h-182zM307 610h324v99q0 88 -45.5 134 t-116.5 46t-116.5 -46t-45.5 -134v-99z" />
<glyph unicode="&#xe9;" horiz-adv-x="935" d="M88 362v320q0 184 104 285.5t277 101.5t276 -96t103 -275v-243h-541v-117q0 -87 49 -135.5t119 -48.5q71 0 113.5 40t42.5 119v29h217v-8q0 -173 -100 -266t-283 -93q-172 0 -274.5 101.5t-102.5 285.5zM307 610h324v99q0 88 -45.5 134t-116.5 46t-116.5 -46t-45.5 -134 v-99zM354 1167l150 267h244l-211 -267h-183z" />
<glyph unicode="&#xea;" horiz-adv-x="935" d="M88 362v320q0 184 104 285.5t277 101.5t276 -96t103 -275v-243h-541v-117q0 -87 49 -135.5t119 -48.5q71 0 113.5 40t42.5 119v29h217v-8q0 -173 -100 -266t-283 -93q-172 0 -274.5 101.5t-102.5 285.5zM207 1167l129 267h272l129 -267h-159l-107 154l-104 -154h-160z M307 610h324v99q0 88 -45.5 134t-116.5 46t-116.5 -46t-45.5 -134v-99z" />
<glyph unicode="&#xeb;" horiz-adv-x="935" d="M88 362v320q0 184 104 285.5t277 101.5t276 -96t103 -275v-243h-541v-117q0 -87 49 -135.5t119 -48.5q71 0 113.5 40t42.5 119v29h217v-8q0 -173 -100 -266t-283 -93q-172 0 -274.5 101.5t-102.5 285.5zM225 1235v199h207v-199h-207zM307 610h324v99q0 88 -45.5 134 t-116.5 46t-116.5 -46t-45.5 -134v-99zM512 1235v199h207v-199h-207z" />
<glyph unicode="&#xed;" horiz-adv-x="483" d="M125 0v1044h217v-1044h-217zM145 1167l150 267h244l-211 -267h-183z" />
<glyph unicode="&#xee;" horiz-adv-x="483" d="M-20 1167l129 267h272l129 -267h-160l-106 154l-105 -154h-159zM125 0v1044h217v-1044h-217z" />
<glyph unicode="&#xef;" horiz-adv-x="483" d="M-6 1235v199h207v-199h-207zM125 0v1044h217v-1044h-217zM281 1235v199h206v-199h-206z" />
<glyph unicode="&#xf0;" horiz-adv-x="970" d="M88 362v318q0 177 112.5 283t284.5 106q28 0 78 -8q-45 75 -80 121l-174 -47l-39 133l113 30q-49 56 -143 136h217q53 -38 108 -84l183 51l36 -133l-112 -33q97 -120 154 -263.5t57 -273.5v-336q0 -179 -112.5 -283t-285.5 -104t-285 105.5t-112 281.5zM307 360 q0 -99 47.5 -152.5t130.5 -53.5q85 0 133 53t48 153v324q0 99 -48.5 153t-132.5 54q-83 0 -130.5 -54.5t-47.5 -154.5v-322z" />
<glyph unicode="&#xf1;" horiz-adv-x="976" d="M113 0v1044h213v-114h8q27 52 95 95.5t153 43.5q120 0 202 -84.5t82 -236.5v-748h-215v717q0 67 -40.5 119.5t-108.5 52.5q-75 0 -123.5 -52.5t-48.5 -131.5v-705h-217zM188 1284q21 54 66 92.5t119 38.5q47 0 118 -26.5t103 -26.5q31 0 47.5 12.5t30.5 38.5l108 -82 q-53 -125 -190 -125q-52 0 -94 13.5t-72.5 27t-54.5 13.5q-50 0 -74 -50q-92 59 -107 74z" />
<glyph unicode="&#xf2;" horiz-adv-x="970" d="M88 362v318q0 177 112.5 283t284.5 106q174 0 286 -104.5t112 -284.5v-318q0 -179 -112.5 -283t-285.5 -104t-285 105.5t-112 281.5zM193 1434h245l148 -267h-183zM307 360q0 -99 47.5 -152.5t130.5 -53.5q85 0 133 53t48 153v324q0 99 -48.5 153t-132.5 54 q-83 0 -130.5 -54.5t-47.5 -154.5v-322z" />
<glyph unicode="&#xf3;" horiz-adv-x="970" d="M88 362v318q0 177 112.5 283t284.5 106q174 0 286 -104.5t112 -284.5v-318q0 -179 -112.5 -283t-285.5 -104t-285 105.5t-112 281.5zM307 360q0 -99 47.5 -152.5t130.5 -53.5q85 0 133 53t48 153v324q0 99 -48.5 153t-132.5 54q-83 0 -130.5 -54.5t-47.5 -154.5v-322z M371 1167l149 267h244l-211 -267h-182z" />
<glyph unicode="&#xf4;" horiz-adv-x="970" d="M88 362v318q0 177 112.5 283t284.5 106q174 0 286 -104.5t112 -284.5v-318q0 -179 -112.5 -283t-285.5 -104t-285 105.5t-112 281.5zM219 1167l129 267h273l129 -267h-160l-107 154l-104 -154h-160zM307 360q0 -99 47.5 -152.5t130.5 -53.5q85 0 133 53t48 153v324 q0 99 -48.5 153t-132.5 54q-83 0 -130.5 -54.5t-47.5 -154.5v-322z" />
<glyph unicode="&#xf6;" horiz-adv-x="970" d="M88 362v318q0 177 112.5 283t284.5 106q174 0 286 -104.5t112 -284.5v-318q0 -179 -112.5 -283t-285.5 -104t-285 105.5t-112 281.5zM240 1235v199h206v-199h-206zM307 360q0 -99 47.5 -152.5t130.5 -53.5q85 0 133 53t48 153v324q0 99 -48.5 153t-132.5 54 q-83 0 -130.5 -54.5t-47.5 -154.5v-322zM526 1235v199h207v-199h-207z" />
<glyph unicode="&#xf8;" horiz-adv-x="970" d="M88 362v318q0 177 112.5 283t284.5 106q174 0 286 -104.5t112 -284.5v-318q0 -179 -112.5 -283t-285.5 -104t-285 105.5t-112 281.5zM307 389l330 420q-50 82 -152 82q-32 0 -56.5 -6t-43 -19.5t-31.5 -29t-21.5 -42.5t-14 -51.5t-8 -63.5t-3 -71t-0.5 -82v-137zM342 223 q48 -69 143 -69q85 0 133 53t48 153v236v37q-40 -51 -151.5 -192.5t-172.5 -217.5z" />
<glyph unicode="&#xf9;" horiz-adv-x="954" d="M152 297v747h215v-722q0 -168 143 -168q71 0 111.5 48.5t40.5 123.5v718h219v-1044h-211v111h-8q-79 -136 -224 -136q-124 0 -205 83t-81 239zM244 1434h245l148 -267h-182z" />
<glyph unicode="&#xfa;" horiz-adv-x="954" d="M152 297v747h215v-722q0 -168 143 -168q71 0 111.5 48.5t40.5 123.5v718h219v-1044h-211v111h-8q-79 -136 -224 -136q-124 0 -205 83t-81 239zM291 1167l149 267h244l-211 -267h-182z" />
<glyph unicode="&#xfb;" horiz-adv-x="954" d="M152 297v747h215v-722q0 -168 143 -168q71 0 111.5 48.5t40.5 123.5v718h219v-1044h-211v111h-8q-79 -136 -224 -136q-124 0 -205 83t-81 239zM207 1167l129 267h272l129 -267h-159l-107 154l-104 -154h-160z" />
<glyph unicode="&#xfc;" horiz-adv-x="954" d="M152 297v747h215v-722q0 -168 143 -168q71 0 111.5 48.5t40.5 123.5v718h219v-1044h-211v111h-8q-79 -136 -224 -136q-124 0 -205 83t-81 239zM225 1235v199h207v-199h-207zM512 1235v199h207v-199h-207z" />
<glyph unicode="&#xfd;" horiz-adv-x="829" d="M6 1044h227l193 -729l195 729h223l-443 -1454h-219l135 410zM254 1167l149 267h244l-211 -267h-182z" />
<glyph unicode="&#xff;" horiz-adv-x="829" d="M6 1044h227l193 -729l195 729h223l-443 -1454h-219l135 410zM164 1235v199h207v-199h-207zM451 1235v199h206v-199h-206z" />
<glyph unicode="&#x152;" horiz-adv-x="1579" d="M94 455v524q0 211 129 333t359 122h915v-187h-498v-416h439v-184h-439v-463h519v-184h-938q-221 0 -353.5 124t-132.5 331zM326 440q0 -117 72.5 -186.5t183.5 -69.5h186v1063h-188q-111 0 -182.5 -71.5t-71.5 -184.5v-551z" />
<glyph unicode="&#x153;" horiz-adv-x="1501" d="M88 362v318q0 177 112.5 283t284.5 106q177 0 279 -111q91 111 272 111q173 0 275 -96t102 -275v-243h-539v-117q0 -91 45.5 -137.5t122.5 -46.5q70 0 112 40t42 119v29h217v-8q0 -173 -100 -266t-283 -93q-177 0 -268 107q-101 -107 -277 -107q-173 0 -285 105.5 t-112 281.5zM307 401q0 -247 178 -247q85 0 133 53t48 153v281q0 250 -181 250q-83 0 -130.5 -54.5t-47.5 -154.5v-281zM874 610h322v99q0 88 -45 134t-115 46q-73 0 -117.5 -45.5t-44.5 -134.5v-99z" />
<glyph unicode="&#x178;" horiz-adv-x="1019" d="M16 1434h242l258 -605l260 605h236l-387 -840v-594h-232v594zM272 1614v198h207v-198h-207zM559 1614v198h207v-198h-207z" />
<glyph unicode="&#x2c6;" horiz-adv-x="509" d="M-10 1167l129 267h272l129 -267h-160l-106 154l-104 -154h-160z" />
<glyph unicode="&#x2da;" horiz-adv-x="507" d="M57 1358q0 78 58.5 134t138.5 56q79 0 138 -56.5t59 -133.5q0 -81 -59 -138t-138 -57q-80 0 -138.5 57t-58.5 138zM160 1358q0 -42 27.5 -71.5t66.5 -29.5t66.5 29.5t27.5 71.5q0 40 -27.5 69t-66.5 29t-66.5 -29t-27.5 -69z" />
<glyph unicode="&#x2dc;" horiz-adv-x="509" d="M-41 1284q51 131 184 131q47 0 119 -26.5t103 -26.5t47 12.5t30 38.5l109 -82q-53 -125 -191 -125q-52 0 -94 13.5t-72.5 27t-54.5 13.5q-49 0 -73 -50q-92 59 -107 74z" />
<glyph unicode="&#x2000;" horiz-adv-x="906" />
<glyph unicode="&#x2001;" horiz-adv-x="1812" />
<glyph unicode="&#x2002;" horiz-adv-x="906" />
<glyph unicode="&#x2003;" horiz-adv-x="1812" />
<glyph unicode="&#x2004;" horiz-adv-x="604" />
<glyph unicode="&#x2005;" horiz-adv-x="453" />
<glyph unicode="&#x2006;" horiz-adv-x="302" />
<glyph unicode="&#x2007;" horiz-adv-x="302" />
<glyph unicode="&#x2008;" horiz-adv-x="226" />
<glyph unicode="&#x2009;" horiz-adv-x="362" />
<glyph unicode="&#x200a;" horiz-adv-x="100" />
<glyph unicode="&#x2010;" horiz-adv-x="557" d="M57 506v182h443v-182h-443z" />
<glyph unicode="&#x2011;" horiz-adv-x="557" d="M57 506v182h443v-182h-443z" />
<glyph unicode="&#x2012;" horiz-adv-x="557" d="M57 506v182h443v-182h-443z" />
<glyph unicode="&#x2013;" d="M0 506v182h1024v-182h-1024z" />
<glyph unicode="&#x2014;" horiz-adv-x="2048" d="M0 506v182h2048v-182h-2048z" />
<glyph unicode="&#x2018;" horiz-adv-x="382" d="M68 901v254l137 277h106l-100 -297h104v-234h-247z" />
<glyph unicode="&#x2019;" horiz-adv-x="382" d="M68 1198v236h247v-256l-137 -277h-106l100 297h-104z" />
<glyph unicode="&#x201a;" horiz-adv-x="382" d="M68 0v233h247v-253l-137 -277h-106l100 297h-104z" />
<glyph unicode="&#x201c;" horiz-adv-x="731" d="M68 901v254l137 277h106l-100 -297h104v-234h-247zM416 901v254l137 277h106l-100 -297h105v-234h-248z" />
<glyph unicode="&#x201d;" horiz-adv-x="731" d="M68 1198v236h247v-256l-137 -277h-106l100 297h-104zM416 1198v236h248v-256l-138 -277h-106l100 297h-104z" />
<glyph unicode="&#x201e;" horiz-adv-x="731" d="M68 0v233h247v-253l-137 -277h-106l100 297h-104zM416 0v233h248v-253l-138 -277h-106l100 297h-104z" />
<glyph unicode="&#x2022;" horiz-adv-x="1105" d="M215 600q0 140 99.5 239t238.5 99t238.5 -99t99.5 -239t-99.5 -239t-238.5 -99t-238.5 99t-99.5 239z" />
<glyph unicode="&#x2026;" horiz-adv-x="1150" d="M68 0v244h247v-244h-247zM451 0v244h249v-244h-249zM836 0v244h247v-244h-247z" />
<glyph unicode="&#x202f;" horiz-adv-x="362" />
<glyph unicode="&#x2039;" horiz-adv-x="489" d="M61 530l185 371h182l-174 -364l174 -373h-182z" />
<glyph unicode="&#x203a;" horiz-adv-x="489" d="M61 164l175 373l-175 364h183l184 -371l-184 -366h-183z" />
<glyph unicode="&#x205f;" horiz-adv-x="453" />
<glyph unicode="&#x20ac;" d="M59 485v152h140v131h-140v152h148q26 274 125.5 394t285.5 120q138 0 224.5 -62.5t132.5 -204.5l-195 -49q-48 150 -162 150q-86 0 -132.5 -82.5t-61.5 -265.5h391l-37 -152h-362v-131h329l-36 -152h-285q15 -180 61.5 -260t132.5 -80q61 0 101.5 40t64.5 128 q47 -10 201 -47q-45 -152 -134.5 -219t-232.5 -67q-186 0 -285.5 117t-125.5 388h-148z" />
<glyph unicode="&#x2122;" horiz-adv-x="1331" d="M51 1325v109h467v-109h-166v-512h-133v512h-168zM618 813v621h193l117 -439h10l125 439h186v-621h-119v487l-143 -487h-115l-135 487v-487h-119z" />
<glyph unicode="&#xe000;" horiz-adv-x="1044" d="M0 0v1044h1044v-1044h-1044z" />
</font>
</defs>
</svg>
